<svg xmlns="http://www.w3.org/2000/svg" width="33.892" height="31.999" viewBox="0 0 33.892 31.999"><path d="M1928.947,2479.9a10.228,10.228,0,0,0,2.149.346c.177.009.359.014.537.014a10.136,10.136,0,0,0,7.782-3.591,9.435,9.435,0,0,0,1.895-8.323,11.7,11.7,0,0,0-.852-2.371,10.82,10.82,0,1,1-11.511,13.925Zm2.264-1.869c-3.875-.2-7.049-3.267-9.8-5.708-1.78-1.579-3.516-3.218-5.177-4.919l12.243-11.815c.533-.493,4.755,4.39,5.185,4.914,2.1,2.557,4.7,5.038,5.5,8.363a7.472,7.472,0,0,1-7.507,9.177C1931.5,2478.039,1931.357,2478.035,1931.211,2478.028Zm-2.122-12.721a11.361,11.361,0,0,0-2.8,2.784c-1.123,1.646-1.571,3.564.276,4.949a9.3,9.3,0,0,0,4.781,2.122,4.759,4.759,0,0,0,5.042-5.82c-.364-1.5-1.5-2.9-3.214-4.634a1.822,1.822,0,0,0-1.347-.582A5.449,5.449,0,0,0,1929.089,2465.306Zm10.586-1.342-6.584-8.38h6.207l2.372,8.38Z" transform="translate(-1916.229 -2455.551)" fill="#272727"/></svg>