<svg xmlns="http://www.w3.org/2000/svg" width="29" height="32" viewBox="0 0 29 32">
<path d="M1961.12,2479.07a2,2,0,0,1-2-2v-25a1.993,1.993,0,0,1,2-2h3v-1.5a1.5,1.5,0,0,1,3,0v1.5h13v-1.5a1.5,1.5,0,0,1,3,0v1.5h3a2,2,0,0,1,2,2v25a2.006,2.006,0,0,1-2,2Zm1-19v14a2,2,0,0,0,2,2h19a2.006,2.006,0,0,0,2-2v-14a2,2,0,0,0-2-2h-19A1.993,1.993,0,0,0,1962.12,2460.07Zm14.22,11.21-2.5-1.31-2.5,1.31a.489.489,0,0,1-.52-.041.471.471,0,0,1-.2-.49l.47-2.78-2.021-1.97a.487.487,0,0,1-.13-.51.511.511,0,0,1,.41-.35l2.79-.4,1.26-2.54a.484.484,0,0,1,.439-.28.5.5,0,0,1,.451.28l1.249,2.54,2.8.4a.5.5,0,0,1,.4.35.5.5,0,0,1-.12.51l-2.03,1.97.48,2.78a.489.489,0,0,1-.2.49.462.462,0,0,1-.29.1A.536.536,0,0,1,1976.34,2471.28Z" transform="translate(-1959.12 -2447.07)" fill="#272727"/></svg>