<svg xmlns="http://www.w3.org/2000/svg" xmlns:xlink="http://www.w3.org/1999/xlink" width="576" height="479.219" viewBox="0 0 576 479.219"><defs><filter id="a" x="95" y="51.817" width="373" height="427.401" filterUnits="userSpaceOnUse"><feOffset dy="2" input="SourceAlpha"/><feGaussianBlur stdDeviation="3" result="b"/><feFlood flood-opacity="0.153"/><feComposite operator="in" in2="b"/><feComposite in="SourceGraphic"/></filter><filter id="c" x="152" y="89" width="259" height="283" filterUnits="userSpaceOnUse"><feOffset dy="3" input="SourceAlpha"/><feGaussianBlur stdDeviation="3" result="d"/><feFlood flood-opacity="0.161"/><feComposite operator="in" in2="d"/><feComposite in="SourceGraphic"/></filter></defs><g transform="translate(-1028 -2957)"><g transform="translate(5 -15)"><rect width="88.013" height="148.251" transform="translate(1404.5 3096.587) rotate(-78.98)" fill="#fff" stroke="#727272" stroke-width="1"/><g transform="translate(838.039 -230.926) rotate(11)"><rect width="41" height="6" transform="translate(1226 3085.714)" fill="#e6e6e6"/><rect width="78" height="4" transform="translate(1226.068 3107.066)" fill="#f5f5f5"/><rect width="78" height="4" transform="translate(1225.909 3115.247)" fill="#f5f5f5"/><rect width="78" height="4" transform="translate(1225.937 3123.391)" fill="#f5f5f5"/></g></g><g transform="translate(1980.352 -64.339) rotate(34)"><rect width="88.013" height="148.251" transform="translate(1404.5 3096.587) rotate(-78.98)" fill="#fff" stroke="#727272" stroke-width="1"/><g transform="translate(838.039 -230.926) rotate(11)"><rect width="41" height="6" transform="translate(1226 3085.714)" fill="#e6e6e6"/><rect width="78" height="4" transform="translate(1226.068 3107.066)" fill="#f5f5f5"/><rect width="78" height="4" transform="translate(1225.909 3115.247)" fill="#f5f5f5"/><rect width="78" height="4" transform="translate(1225.937 3123.391)" fill="#f5f5f5"/></g></g><g transform="matrix(0.848, -0.53, 0.53, 0.848, -1745.809, 1513.407)"><rect width="88.013" height="148.251" transform="translate(1404.5 3096.587) rotate(-78.98)" fill="#fff" stroke="#727272" stroke-width="1"/><g transform="translate(838.039 -230.926) rotate(11)"><rect width="41" height="6" transform="translate(1226 3085.714)" fill="#e6e6e6"/><rect width="78" height="4" transform="translate(1226.068 3107.066)" fill="#f5f5f5"/><rect width="78" height="4" transform="translate(1225.909 3115.247)" fill="#f5f5f5"/><rect width="78" height="4" transform="translate(1225.937 3123.391)" fill="#f5f5f5"/></g></g><g transform="translate(-1475.212 918.278) rotate(-25)"><rect width="88.013" height="148.251" transform="translate(1404.5 3096.587) rotate(-78.98)" fill="#fff" stroke="#727272" stroke-width="1"/><g transform="translate(838.039 -230.926) rotate(11)"><rect width="41" height="6" transform="translate(1226 3085.714)" fill="#e6e6e6"/><rect width="78" height="4" transform="translate(1226.068 3107.066)" fill="#f5f5f5"/><rect width="78" height="4" transform="translate(1225.909 3115.247)" fill="#f5f5f5"/><rect width="78" height="4" transform="translate(1225.937 3123.391)" fill="#f5f5f5"/></g></g><g transform="matrix(1, 0, 0, 1, 1028, 2957)" filter="url(#a)"><path d="M499.312,422.717h-354V178.989l177-164.491,177,164.491Z" transform="translate(-40.81 45)" fill="#fff" stroke="#727272" stroke-width="1"/></g><g transform="matrix(1, 0, 0, 1, 1028, 2957)" filter="url(#c)"><rect width="240" height="264" transform="translate(161.5 95.5)" fill="#fff" stroke="#727272" stroke-width="1"/></g><path d="M145.812,284.449l177,121-177,122Z" transform="translate(987.188 2896.551)" fill="#f8f8f8"/><path d="M612.993,284.449l-177,121,177,122Z" transform="translate(873.007 2896.551)" fill="#f8f8f8"/><path d="M310.462,700.991l169.52-133a11.341,11.341,0,0,1,13.96,0l169.52,133Z" transform="translate(822.538 2723.009)" fill="#e6e6e6"/><path d="M310.462,704.754l169.52-127a11.756,11.756,0,0,1,13.96,0l169.52,127Z" transform="translate(822.538 2719.245)" fill="#fff"/><rect width="88" height="13" transform="translate(1226 3086)" fill="#b09159"/><rect width="167" height="8" transform="translate(1226 3130)" fill="#f5f5f5"/><rect width="167" height="8" transform="translate(1226 3149)" fill="#f5f5f5"/><rect width="167" height="8" transform="translate(1226 3167)" fill="#f5f5f5"/><rect width="167" height="8" transform="translate(1226 3186)" fill="#f5f5f5"/><text transform="translate(1330 2980)" fill="#727272" font-size="21" font-family="ArialMT, Arial"><tspan x="0" y="0">@</tspan></text><text transform="translate(1037 3204)" fill="#727272" font-size="21" font-family="ArialMT, Arial"><tspan x="0" y="0">@</tspan></text><text transform="translate(1535 3200)" fill="#727272" font-size="21" font-family="ArialMT, Arial"><tspan x="0" y="0">@</tspan></text><rect width="8" height="8" transform="translate(1261 2957)" fill="#e6e6e6"/><rect width="8" height="8" transform="translate(1028 3110)" fill="#e6e6e6"/><rect width="8" height="8" transform="translate(1385 2985)" fill="#e6e6e6"/><rect width="8" height="8" transform="translate(1596 3110)" fill="#e6e6e6"/><rect width="8" height="8" transform="translate(1572 3257)" fill="#e6e6e6"/><rect width="8" height="8" transform="translate(1088 3236)" fill="#e6e6e6"/><g transform="translate(0.803 7.206)"><rect width="20.352" height="20.352" rx="1" transform="matrix(0.966, 0.259, -0.259, 0.966, 1301.599, 3215.332)" fill="#b09159"/><rect width="20.352" height="20.352" rx="1" transform="translate(1308.794 3213.404) rotate(45)" fill="#b09159"/><rect width="20.352" height="20.352" rx="1" transform="matrix(0.259, 0.966, -0.966, 0.259, 1315.989, 3215.332)" fill="#b09159"/></g></g></svg>