<svg xmlns="http://www.w3.org/2000/svg" width="36" height="32" viewBox="0 0 36 32"><path d="M17.205,15.655a1.089,1.089,0,0,0,1.594,0L25.6,8.518a5.18,5.18,0,0,0-.35-7.425,4.751,4.751,0,0,0-6.556.481l-.7.731-.694-.725a4.745,4.745,0,0,0-6.556-.487,5.186,5.186,0,0,0-.35,7.425ZM35.329,20.5a2.069,2.069,0,0,0-2.662,0l-5.775,4.618a3.979,3.979,0,0,1-2.5.875H17a1,1,0,0,1,0-2h4.893a2.081,2.081,0,0,0,2.081-1.662A2,2,0,0,0,22,20H12a7.356,7.356,0,0,0-4.631,1.644L4.462,24H1a1,1,0,0,0-1,1v6a1,1,0,0,0,1,1H23.3a4,4,0,0,0,2.5-.875l9.449-7.562A2,2,0,0,0,35.329,20.5Z" transform="translate(0 0.002)" fill="#272727"/></svg>