<svg xmlns="http://www.w3.org/2000/svg" width="100" height="40" viewBox="0 0 100 40"><path d="M21.184,42q.536-.195,1.088-.4l1.768-.661C33.64,37.347,39.647,36,50,36c10.271,0,15.362,1.222,24.629,4.928.955.383,1.869.74,2.75,1.072H83.6c-2.51-.73-5.139-1.691-8.233-2.928C65.888,35.278,60.562,34,50,34c-10.626,0-16.855,1.4-26.66,5.063l-1.767.662C19.1,40.648,16.913,41.4,14.849,42Zm0-40C13.258,4.892,8.077,6,0,6V4A49.278,49.278,0,0,0,14.85,2Zm56.2,0C85.239,4.966,90.5,6,100,6V4c-6.842,0-11.386-.542-16.4-2H77.379ZM0,26c8.44,0,13.718-1.21,22.272-4.4l1.768-.661C33.64,17.347,39.647,16,50,16c10.271,0,15.362,1.222,24.629,4.928C84.112,24.722,89.438,26,100,26V24c-10.271,0-15.362-1.222-24.629-4.928C65.888,15.278,60.562,14,50,14c-10.626,0-16.855,1.4-26.66,5.063l-1.767.662C13.223,22.84,8.163,24,0,24Z" transform="translate(0 -2)" fill="#e6e6e6" fill-rule="evenodd"/></svg>