<svg xmlns="http://www.w3.org/2000/svg" width="350" height="21.301" viewBox="0 0 350 21.301"><path d="M1158.37,392.813l-4.369-20.6h2.22l2.5,13.507q.394,2.081.7,4.216l.736-3.808,3.121-13.915h2.635l2.34,10.429a73.781,73.781,0,0,1,1.278,7.294q.315-2.008.807-4.483l2.582-13.24h2.183l-4.51,20.6H1168.5l-3.466-15.7-.519-2.416c-.156.9-.313,1.7-.479,2.416l-3.479,15.7Z" transform="translate(-1154.001 -371.854)"/><path d="M1169.234,392.813l6.327-20.6h2.32l6.716,20.6h-2.483l-1.907-6.241h-6.9l-1.781,6.241Zm4.707-8.461h5.587l-1.705-5.705q-.792-2.629-1.158-4.273a31.3,31.3,0,0,1-.9,3.935Z" transform="translate(-1147.952 -371.854)"/><path d="M1182.013,392.813v-20.6h2.223l8.623,16.21v-16.21h2.074v20.6h-2.224L1184.1,376.6v16.211Z" transform="translate(-1142.877 -371.854)"/><path d="M1193.208,392.813l6.324-20.6h2.321l6.718,20.6h-2.483l-1.908-6.241h-6.9l-1.783,6.241Zm4.706-8.461h5.587l-1.706-5.705q-.788-2.629-1.159-4.273a30.957,30.957,0,0,1-.9,3.935Z" transform="translate(-1136.76 -371.854)"/><path d="M1205.976,392.813v-20.6h2.169v10.219l8.149-10.219h2.944l-6.886,8.358,7.185,12.246h-2.866l-5.825-10.419-2.7,3.279v7.14Z" transform="translate(-1131.157 -371.854)"/><path d="M1216.283,392.813l6.327-20.6h2.32l6.716,20.6h-2.483l-1.908-6.241h-6.9l-1.783,6.241Zm4.706-8.461h5.587l-1.7-5.705q-.789-2.629-1.158-4.273a31.217,31.217,0,0,1-.9,3.935Z" transform="translate(-1126.613 -371.854)"/><path d="M1245.2,385.688l2.184.687a9.646,9.646,0,0,1-2.532,5.175,6.18,6.18,0,0,1-4.4,1.707,6.572,6.572,0,0,1-3.9-1.145,8.09,8.09,0,0,1-2.647-3.675,15.775,15.775,0,0,1-1.03-5.971,14.337,14.337,0,0,1,1.03-5.754,8.082,8.082,0,0,1,2.793-3.554,6.817,6.817,0,0,1,3.934-1.2,5.939,5.939,0,0,1,4.083,1.52,8.3,8.3,0,0,1,2.39,4.462l-2.128.633q-1.092-4.284-4.386-4.283a4.73,4.73,0,0,0-2.842.866,5.825,5.825,0,0,0-1.92,2.69,12.8,12.8,0,0,0-.716,4.624q0,4.229,1.447,6.345a4.45,4.45,0,0,0,3.847,2.114,4.163,4.163,0,0,0,3.063-1.3A7.112,7.112,0,0,0,1245.2,385.688Z" transform="translate(-1119.321 -371.955)"/><path d="M1245.368,382.879q0-5.267,2.25-8.095a6.9,6.9,0,0,1,5.609-2.829,6.7,6.7,0,0,1,3.956,1.264,8.492,8.492,0,0,1,2.833,3.672,14.363,14.363,0,0,1,1.043,5.735,12.709,12.709,0,0,1-2.021,7.456,6.9,6.9,0,0,1-11.665-.085A12.362,12.362,0,0,1,1245.368,382.879Zm2.238.034a9.438,9.438,0,0,0,1.631,5.911,4.816,4.816,0,0,0,7.968-.021q1.615-2.124,1.616-6.24a12.79,12.79,0,0,0-.833-4.751,5.818,5.818,0,0,0-1.929-2.563,4.618,4.618,0,0,0-2.817-.963,4.864,4.864,0,0,0-4.047,2.108Q1247.606,378.5,1247.606,382.914Z" transform="translate(-1113.819 -371.955)"/><path d="M1259.122,392.813v-20.6h2.225l8.622,16.21v-16.21h2.073v20.6h-2.224l-8.61-16.211v16.211Z" transform="translate(-1107.809 -371.854)"/><path d="M1283.441,385.688l2.181.687a9.62,9.62,0,0,1-2.531,5.175,6.173,6.173,0,0,1-4.4,1.707,6.571,6.571,0,0,1-3.895-1.145,8.085,8.085,0,0,1-2.647-3.675,15.8,15.8,0,0,1-1.03-5.971,14.319,14.319,0,0,1,1.031-5.754,8.092,8.092,0,0,1,2.793-3.554,6.811,6.811,0,0,1,3.933-1.2,5.937,5.937,0,0,1,4.084,1.52,8.3,8.3,0,0,1,2.391,4.462l-2.129.633q-1.092-4.284-4.384-4.283a4.729,4.729,0,0,0-2.843.866,5.809,5.809,0,0,0-1.92,2.69,12.787,12.787,0,0,0-.716,4.624q0,4.229,1.447,6.345a4.453,4.453,0,0,0,3.847,2.114,4.163,4.163,0,0,0,3.063-1.3A7.116,7.116,0,0,0,1283.441,385.688Z" transform="translate(-1102.512 -371.955)"/><path d="M1284.072,392.813v-20.6h11.857v2.431h-9.687v6.3h9.073v2.432h-9.073v7.013h10.069v2.431Z" transform="translate(-1096.855 -371.854)"/><path d="M1295.571,392.813v-20.6h7.272a7.5,7.5,0,0,1,3.364.576,4.333,4.333,0,0,1,1.78,1.917,6.663,6.663,0,0,1,.7,3.113,5.78,5.78,0,0,1-1.18,3.778,5.456,5.456,0,0,1-3.431,1.839,5.573,5.573,0,0,1,1.392,1.146,14.4,14.4,0,0,1,1.706,2.628l2.865,5.607H1307.3l-2.186-4.283a27.124,27.124,0,0,0-1.92-3.388,3.816,3.816,0,0,0-1.252-1.176,3.884,3.884,0,0,0-1.7-.3h-2.508v9.149Zm2.169-11.511h4.667a5.568,5.568,0,0,0,2.319-.379,2.83,2.83,0,0,0,1.255-1.194,3.774,3.774,0,0,0,.464-1.9,3.327,3.327,0,0,0-.886-2.452,3.561,3.561,0,0,0-2.633-.892h-5.186Z" transform="translate(-1091.763 -371.854)"/><path d="M1312.277,392.813V374.64h-5.4v-2.431h13v2.431h-5.431v18.173Z" transform="translate(-1086.823 -371.854)"/><path d="M1322.7,386.277l2.047-.224a6.275,6.275,0,0,0,.743,2.647,4.214,4.214,0,0,0,1.659,1.523,5.066,5.066,0,0,0,2.428.577,4.311,4.311,0,0,0,3.008-.973,3.263,3.263,0,0,0,1.072-2.531,3.141,3.141,0,0,0-.39-1.588,2.962,2.962,0,0,0-1.173-1.116,21.633,21.633,0,0,0-3.39-1.227,11.785,11.785,0,0,1-3.3-1.426,4.915,4.915,0,0,1-1.528-1.818,6.051,6.051,0,0,1,1.022-6.578,5.682,5.682,0,0,1,4.231-1.587,6.617,6.617,0,0,1,3.2.745,5.2,5.2,0,0,1,2.128,2.134,7.173,7.173,0,0,1,.811,3.271l-2.087.2a4.5,4.5,0,0,0-1.167-2.976,3.882,3.882,0,0,0-2.816-.969,4.137,4.137,0,0,0-2.812.85,2.785,2.785,0,0,0-.97,2.2,2.578,2.578,0,0,0,.71,1.938,8.43,8.43,0,0,0,3.191,1.393,20.383,20.383,0,0,1,3.411,1.2,5.578,5.578,0,0,1,2.266,2.072,5.888,5.888,0,0,1,.765,3.065,6.537,6.537,0,0,1-.8,3.218,5.48,5.48,0,0,1-2.191,2.21,6.865,6.865,0,0,1-3.335.758,6.412,6.412,0,0,1-4.85-1.882A7.281,7.281,0,0,1,1322.7,386.277Z" transform="translate(-1079.867 -371.955)"/><path d="M1334.328,382.879q0-5.267,2.251-8.095a6.9,6.9,0,0,1,5.608-2.829,6.7,6.7,0,0,1,3.956,1.264,8.5,8.5,0,0,1,2.832,3.672,14.363,14.363,0,0,1,1.044,5.735,12.7,12.7,0,0,1-2.021,7.456,6.9,6.9,0,0,1-11.664-.085A12.354,12.354,0,0,1,1334.328,382.879Zm2.239.034a9.438,9.438,0,0,0,1.63,5.911,4.817,4.817,0,0,0,7.969-.021q1.615-2.124,1.616-6.24a12.766,12.766,0,0,0-.833-4.751,5.8,5.8,0,0,0-1.931-2.563,4.605,4.605,0,0,0-2.816-.963,4.864,4.864,0,0,0-4.045,2.108Q1336.566,378.5,1336.567,382.914Z" transform="translate(-1074.696 -371.955)"/><path d="M1359.964,385.688l2.182.687a9.621,9.621,0,0,1-2.529,5.175,6.179,6.179,0,0,1-4.4,1.707,6.577,6.577,0,0,1-3.895-1.145,8.091,8.091,0,0,1-2.646-3.675,15.789,15.789,0,0,1-1.03-5.971,14.315,14.315,0,0,1,1.031-5.754,8.074,8.074,0,0,1,2.793-3.554,6.8,6.8,0,0,1,3.931-1.2,5.935,5.935,0,0,1,4.084,1.52,8.278,8.278,0,0,1,2.39,4.462l-2.128.633q-1.095-4.284-4.385-4.283a4.722,4.722,0,0,0-2.842.866,5.8,5.8,0,0,0-1.92,2.69,12.752,12.752,0,0,0-.718,4.624q0,4.229,1.446,6.345a4.459,4.459,0,0,0,3.848,2.114,4.164,4.164,0,0,0,3.063-1.3A7.1,7.1,0,0,0,1359.964,385.688Z" transform="translate(-1068.87 -371.955)"/><path d="M1360.86,392.813v-20.6h2.171v20.6Z" transform="translate(-1061.946 -371.854)"/><path d="M1365.758,392.813v-20.6h11.856v2.431h-9.687v6.3H1377v2.432h-9.073v7.013H1378v2.431Z" transform="translate(-1060.001 -371.854)"/><path d="M1381.808,392.813V374.64h-5.4v-2.431h13v2.431h-5.43v18.173Z" transform="translate(-1055.772 -371.854)"/><path d="M1392.982,392.813v-8.727l-6.318-11.877h2.652l3.22,6.219c.635,1.229,1.2,2.392,1.678,3.489q.725-1.617,1.793-3.643l3.185-6.065h2.509l-6.551,11.877v8.727Z" transform="translate(-1051.699 -371.854)"/></svg>