<svg xmlns="http://www.w3.org/2000/svg" width="125" height="101.126" viewBox="0 0 125 101.126"><g transform="translate(-15.839)"><g transform="translate(15.839)"><path d="M1249.317,216.171a3.571,3.571,0,0,0-.416-2.6c-.689-1.055-2.088.192-2.83,1.534s-14.81,30.878-17.311,61.124a.249.249,0,0,1-.477.092c-1.389-3.084-6.059-14.944-7.278-40.029a2.263,2.263,0,0,0-2.172-2.163,2.413,2.413,0,0,0-2.4,1.979c-1.264,5.145-7.919,31.716-9.266,45.181-.033.338-.43.365-.588.068-2.434-4.609-6.638-21.489-8.166-32.29a1.472,1.472,0,0,0-2.438-.836l-5.076,5.135a5.636,5.636,0,0,0-1.8,5.824c2.132,10.472,12.875,60.693,22.08,54.6a4.28,4.28,0,0,0,1.789-3.229c.606-6.938,3.294-36.827,5.157-43.8a.268.268,0,0,1,.523,0c1.141,4.96,6.531,27.747,10.26,32.243,0,0,3.272,1.127,5.48-.6a2.316,2.316,0,0,0,.845-1.725c.326-7.171,2.918-56.141,13.793-79.643A3.737,3.737,0,0,0,1249.317,216.171Z" transform="translate(-1188.917 -213.18)"/><path d="M1325.739,271.28a131.541,131.541,0,0,0-9.049-13.077,125.3,125.3,0,0,1,7.428-10.559,1.894,1.894,0,0,0-.244-2.607,1.6,1.6,0,0,0-2.2.15c-.2.247-3.558,3.948-7.559,9.331h0c-4.457-7.11-6.2-13.044-6.125-20.2,1.908-5.65,3.3-9.956,3.762-11.754a1.819,1.819,0,0,0-1.032-2.29,1.557,1.557,0,0,0-2.134.554c-2.689,8.28-21.659,65.256-32.172,62.684-11.156-2.729-4.41-31.906,8.148-43.788a3.513,3.513,0,0,0,.479-3.06,1.585,1.585,0,0,0-2.371-.709c-4.119,3.509-20.605,18.966-20.606,40.4,0,23.535,15.47,23.075,15.47,23.075s7.033,1.467,14.565-19.673c2.993-8.4,6.875-19.366,10.408-29.507a47.51,47.51,0,0,0,6.195,12.16c-4.531,7.235-8.505,15.6-8.505,22.7,0,16.312,10.528,20.08,16.568,20.08S1341.616,297.833,1325.739,271.28Zm-1.319,17.986c-.7,6.12-5.03,7.874-7.7,7.329-2.063-.421-15.083-7.315-4.76-29.724C1316.769,273.246,1325,284.17,1324.42,289.266Z" transform="translate(-1206.96 -215.262)"/></g></g></svg>