<svg width="24" height="24" viewBox="0 0 24 24" fill="none" xmlns="http://www.w3.org/2000/svg">
<path d="M17 2C18.3249 2.00396 19.5943 2.53201 20.5312 3.46884C21.468 4.40566 21.996 5.67513 22 7V17C21.996 18.3249 21.468 19.5943 20.5312 20.5312C19.5943 21.468 18.3249 21.996 17 22H7C5.67522 21.9958 4.4059 21.4676 3.46913 20.5309C2.53236 19.5941 2.00422 18.3248 2 17V7C2.00396 5.67513 2.53201 4.40566 3.46884 3.46884C4.40566 2.53201 5.67513 2.00396 7 2H17ZM17 0H7C3.15 0 0 3.15 0 7V17C0 20.85 3.15 24 7 24H17C20.85 24 24 20.85 24 17V7C24 3.15 20.85 0 17 0Z" fill="#A1A1AA"/>
<path d="M18.5 7C18.303 7 18.108 6.9612 17.926 6.88582C17.744 6.81044 17.5786 6.69995 17.4393 6.56066C17.3001 6.42137 17.1896 6.25601 17.1142 6.07403C17.0388 5.89204 17 5.69698 17 5.5C17 5.30302 17.0388 5.10796 17.1142 4.92597C17.1896 4.74399 17.3001 4.57863 17.4393 4.43934C17.5786 4.30005 17.744 4.18956 17.926 4.11418C18.108 4.0388 18.303 4 18.5 4C18.8978 4 19.2794 4.15804 19.5607 4.43934C19.842 4.72064 20 5.10218 20 5.5C20 5.89782 19.842 6.27936 19.5607 6.56066C19.2794 6.84196 18.8978 7 18.5 7V7ZM12 8C13.0609 8 14.0783 8.42143 14.8284 9.17157C15.5786 9.92172 16 10.9391 16 12C16 13.0609 15.5786 14.0783 14.8284 14.8284C14.0783 15.5786 13.0609 16 12 16C10.9391 16 9.92172 15.5786 9.17157 14.8284C8.42143 14.0783 8 13.0609 8 12C8 10.9391 8.42143 9.92172 9.17157 9.17157C9.92172 8.42143 10.9391 8 12 8V8ZM12 6C10.4087 6 8.88258 6.63214 7.75736 7.75736C6.63214 8.88258 6 10.4087 6 12C6 13.5913 6.63214 15.1174 7.75736 16.2426C8.88258 17.3679 10.4087 18 12 18C13.5913 18 15.1174 17.3679 16.2426 16.2426C17.3679 15.1174 18 13.5913 18 12C18 10.4087 17.3679 8.88258 16.2426 7.75736C15.1174 6.63214 13.5913 6 12 6Z" fill="#A1A1AA"/>
</svg>
