<svg width="30" height="24" viewBox="0 0 30 24" fill="none" xmlns="http://www.w3.org/2000/svg">
<g clip-path="url(#clip0_205_4)">
<path d="M30 2.84401C28.8745 3.33296 27.6836 3.65502 26.465 3.80001C27.7458 3.05044 28.709 1.85927 29.174 0.450011C27.9634 1.15795 26.6412 1.6547 25.264 1.91901C24.684 1.31108 23.9864 0.82747 23.2137 0.497573C22.441 0.167677 21.6092 -0.00160824 20.769 1.15146e-05C17.369 1.15146e-05 14.616 2.71201 14.616 6.05601C14.613 6.52101 14.666 6.98601 14.774 7.43701C12.3352 7.32275 9.94717 6.70073 7.76256 5.61074C5.57794 4.52076 3.64487 2.98681 2.087 1.10701C1.54054 2.02809 1.25147 3.07903 1.25 4.15001C1.25 6.25001 2.346 8.10601 4 9.19401C3.01968 9.17055 2.05951 8.91087 1.201 8.43701V8.51201C1.201 11.45 3.326 13.894 6.139 14.45C5.60989 14.5912 5.06463 14.6628 4.517 14.663C4.129 14.663 3.742 14.626 3.361 14.55C4.142 16.956 6.418 18.706 9.114 18.756C6.92366 20.4442 4.23442 21.3567 1.469 21.35C0.978 21.35 0.487 21.32 0 21.262C2.8131 23.0586 6.08318 24.0089 9.421 24C20.756 24 26.95 14.769 26.95 6.76201C26.95 6.50001 26.943 6.23701 26.93 5.98201C28.1318 5.12653 29.1714 4.06355 30 2.84301V2.84401Z" fill="#A1A1AA"/>
</g>
<defs>
<clipPath id="clip0_205_4">
<rect width="30" height="24" fill="white"/>
</clipPath>
</defs>
</svg>
