<svg width="32" height="24" viewBox="0 0 32 24" fill="none" xmlns="http://www.w3.org/2000/svg">
<g clip-path="url(#clip0_205_9)">
<path d="M31.7899 5.30007C31.7899 2.48707 29.7199 0.224066 27.1649 0.224066C23.6328 0.0669425 20.0975 -0.00774446 16.5619 6.63674e-05H15.4369C11.8369 6.63674e-05 8.29992 0.0620664 4.83692 0.225066C2.28792 0.225066 0.219921 2.50007 0.219921 5.31207C0.0666927 7.53338 -0.00668794 9.75948 -7.87002e-05 11.9861C-0.00605857 14.2152 0.0649838 16.4439 0.212921 18.6681C0.212921 21.4801 2.28192 23.7611 4.83192 23.7611C8.46892 23.9301 12.1999 24.0051 15.9939 23.9991C19.7939 24.0111 23.5139 23.9321 27.1559 23.7611C29.7119 23.7611 31.7809 21.4801 31.7809 18.6681C31.9309 16.4361 31.9999 14.2111 31.9929 11.9801C32.0072 9.75166 31.9395 7.52349 31.7899 5.30007V5.30007ZM12.9379 18.1171V5.83707L21.9999 11.9741L12.9369 18.1181L12.9379 18.1171Z" fill="#A1A1AA"/>
</g>
<defs>
<clipPath id="clip0_205_9">
<rect width="32" height="24" fill="white"/>
</clipPath>
</defs>
</svg>
