<svg viewBox="0 0 1000 1000" xmlns="http://www.w3.org/2000/svg">
<g transform="translate(-180.5 -43.744)">
<rect transform="translate(180.5 43.744)" width="1e3" height="1e3"/>
<g transform="translate(364.17 292.66)" fill="#fff">
<g transform="translate(90.575)">
<path transform="translate(-1188.9 -213.18)" d="M1413.218,223.93a12.478,12.478,0,0,0-1.544-9.331c-2.56-3.793-7.755.69-10.509,5.512-2.729,4.776-55,110.99-64.286,219.709a.928.928,0,0,1-1.769.33c-5.157-11.085-22.5-53.715-27.028-143.885,0,0-.328-7.367-8.065-7.774-5.932-.314-8.313,4.789-8.905,7.113-4.695,18.493-29.41,114-34.411,162.4-.125,1.214-1.6,1.312-2.183.244-9.038-16.566-24.65-77.243-30.325-116.066-.607-4.143-5.857-5.707-9.052-3l-18.85,18.457c-9.155,7.44-7.546,16.911-6.7,20.934,7.917,37.643,47.813,218.158,82,196.272a15.27,15.27,0,0,0,6.641-11.606c2.251-24.937,12.233-132.375,19.151-157.424a1,1,0,0,1,1.943.016c4.239,17.829,24.252,99.737,38.1,115.9,0,0,12.15,4.05,20.349-2.163a8.229,8.229,0,0,0,3.14-6.2c1.211-25.777,10.835-201.8,51.222-286.276A13.1,13.1,0,0,0,1413.218,223.93Z"/>
<path transform="translate(-1072.3 -202.17)" d="m1498.5 402.95c-13.837-22.257-24.769-35.336-33.6-46.711a447.96 447.96 0 0 1 27.584-37.718c0.929-1.149 3.316-4.986-0.906-9.313-1.887-1.933-6.262-1.717-8.159 0.534-0.745 0.882-13.215 14.1-28.073 33.331v-5e-3c-16.551-25.4-23.018-46.595-22.748-72.154 7.084-20.182 12.267-35.565 13.969-41.988 0.487-1.85 1.077-6.1-3.833-8.182-3.936-1.665-7.3 0.143-7.925 1.979-9.985 29.575-80.434 233.1-119.47 223.91-41.429-9.748-16.376-113.97 30.257-156.41 1.91-1.741 3.109-7.157 1.78-10.929-1.531-4.35-7.064-3.958-8.805-2.532-15.3 12.534-76.52 67.749-76.522 144.31 0 84.069 57.451 82.427 57.451 82.427s26.118 5.242 54.089-70.273c11.115-30.006 25.531-69.176 38.651-105.4 3.357 10.192 9.974 24.991 23 43.438-16.825 25.842-31.586 55.718-31.586 81.085 0 58.268 39.1 71.726 61.526 71.726s92.284-26.275 33.324-121.13zm-4.9 64.247c-2.588 21.862-18.678 28.127-28.6 26.179-7.661-1.5-56.012-26.13-17.676-106.18 17.865 22.773 48.435 61.796 46.279 80.002z"/>
</g>
<g transform="translate(0 411.87)">
<path transform="translate(-1154 -371.55)" d="M1162.112,409.346,1154,372.209h4.121l4.642,24.346q.733,3.751,1.293,7.6l1.367-6.864,5.794-25.08h4.891l4.346,18.8a129.4,129.4,0,0,1,2.372,13.146q.584-3.619,1.5-8.08l4.794-23.863h4.053l-8.374,37.137h-3.87l-6.434-28.3-.963-4.355q-.434,2.432-.888,4.355l-6.458,28.3Z"/>
<path transform="translate(-1129.7 -371.55)" d="m1169.2 409.35 11.747-37.137h4.308l12.469 37.137h-4.61l-3.54-11.248h-12.815l-3.306 11.248zm8.74-15.251h10.374l-3.166-10.283q-1.47-4.739-2.151-7.7a54.79 54.79 0 0 1-1.669 7.092z"/>
<path transform="translate(-1109.3 -371.55)" d="m1182 409.35v-37.137h4.127l16.011 29.217v-29.217h3.849v37.137h-4.13l-15.985-29.219v29.219z"/>
<path transform="translate(-1091.5 -371.55)" d="m1193.2 409.35 11.743-37.137h4.308l12.473 37.137h-4.609l-3.543-11.248h-12.812l-3.311 11.248zm8.737-15.251h10.373l-3.167-10.283q-1.464-4.739-2.151-7.7a54.489 54.489 0 0 1-1.668 7.092z"/>
<path transform="translate(-1071.1 -371.55)" d="m1206 409.35v-37.137h4.024v18.418l15.131-18.418h5.466l-12.784 15.064 13.341 22.073h-5.321l-10.817-18.778-5.016 5.909v12.869z"/>
<path transform="translate(-1054.7 -371.55)" d="m1216.3 409.35 11.747-37.137h4.308l12.47 37.137h-4.61l-3.542-11.248h-12.813l-3.311 11.248zm8.737-15.251h10.373l-3.164-10.283q-1.465-4.739-2.151-7.7a54.863 54.863 0 0 1-1.672 7.092z"/>
<path transform="translate(-1028.3 -371.96)" d="m1255.8 396.73 4.055 1.24q-1.348 6.26-4.7 9.336a11.657 11.657 0 0 1-8.169 3.079 12.457 12.457 0 0 1-7.233-2.065 14.627 14.627 0 0 1-4.915-6.63 27.737 27.737 0 0 1-1.912-10.773 25.22 25.22 0 0 1 1.912-10.381 14.663 14.663 0 0 1 5.185-6.413 12.922 12.922 0 0 1 7.306-2.169 11.211 11.211 0 0 1 7.58 2.742 14.849 14.849 0 0 1 4.438 8.049l-3.952 1.141q-2.028-7.728-8.145-7.728a8.961 8.961 0 0 0-5.277 1.562 10.518 10.518 0 0 0-3.565 4.853 22.471 22.471 0 0 0-1.33 8.343q0 7.631 2.687 11.447a8.325 8.325 0 0 0 7.142 3.814 7.844 7.844 0 0 0 5.688-2.343q2.396-2.341 3.205-7.104z"/>
<path transform="translate(-1008.4 -371.96)" d="m1245.4 391.66q0-9.5 4.179-14.6a12.941 12.941 0 0 1 10.413-5.105 12.687 12.687 0 0 1 7.346 2.281 15.388 15.388 0 0 1 5.26 6.625 25.261 25.261 0 0 1 1.937 10.348q0 8.257-3.751 13.453a13.009 13.009 0 0 1-21.659-0.153 21.843 21.843 0 0 1-3.725-12.849zm4.155 0.062q0 6.872 3.029 10.664a9.09 9.09 0 0 0 14.794-0.039q3-3.833 3-11.258a22.5 22.5 0 0 0-1.547-8.571 10.531 10.531 0 0 0-3.582-4.625 8.74 8.74 0 0 0-5.23-1.738 9.114 9.114 0 0 0-7.514 3.8q-2.95 3.808-2.95 11.767z"/>
<path transform="translate(-986.43 -371.55)" d="m1259.1 409.35v-37.137h4.131l16.01 29.217v-29.217h3.849v37.137h-4.128l-15.984-29.22v29.219z"/>
<path transform="translate(-967.31 -371.96)" d="m1294 396.73 4.051 1.24q-1.343 6.26-4.7 9.336a11.645 11.645 0 0 1-8.169 3.079 12.456 12.456 0 0 1-7.232-2.065 14.621 14.621 0 0 1-4.916-6.63 27.8 27.8 0 0 1-1.912-10.773 25.192 25.192 0 0 1 1.915-10.381 14.676 14.676 0 0 1 5.186-6.413 12.9 12.9 0 0 1 7.3-2.169 11.208 11.208 0 0 1 7.582 2.742 14.862 14.862 0 0 1 4.439 8.049l-3.954 1.141q-2.028-7.728-8.14-7.728a8.963 8.963 0 0 0-5.279 1.562 10.5 10.5 0 0 0-3.564 4.853 22.483 22.483 0 0 0-1.33 8.343q0 7.631 2.685 11.447a8.329 8.329 0 0 0 7.143 3.814 7.842 7.842 0 0 0 5.687-2.343q2.391-2.341 3.208-7.104z"/>
<path transform="translate(-946.66 -371.55)" d="m1284.1 409.35v-37.137h22.015v4.382h-17.986v11.349h16.847v4.384h-16.847v12.641h18.7v4.381z"/>
<path transform="translate(-928.33 -371.55)" d="m1295.6 409.35v-37.137h13.5a14.29 14.29 0 0 1 6.246 1.038 7.906 7.906 0 0 1 3.3 3.455 11.72 11.72 0 0 1 1.292 5.611 9.429 9.429 0 0 1-8.562 10.124 10.3 10.3 0 0 1 2.585 2.065 25.964 25.964 0 0 1 3.167 4.736l5.32 10.107h-5.068l-4.06-7.72a48.527 48.527 0 0 0-3.564-6.107 7.015 7.015 0 0 0-2.325-2.119 7.406 7.406 0 0 0-3.153-0.544h-4.649v16.49zm4.029-20.746h8.664a10.625 10.625 0 0 0 4.307-0.682 5.2 5.2 0 0 0 2.33-2.153 6.648 6.648 0 0 0 0.861-3.422 5.9 5.9 0 0 0-1.646-4.42 6.735 6.735 0 0 0-4.888-1.608h-9.628z"/>
<path transform="translate(-910.31 -371.55)" d="m1316.9 409.35v-32.755h-10.033v-4.382h24.145v4.382h-10.085v32.755z"/>
<path transform="translate(-885.08 -371.96)" d="m1322.7 397.79 3.8-0.4a11.072 11.072 0 0 0 1.38 4.776 7.74 7.74 0 0 0 3.079 2.747 9.627 9.627 0 0 0 4.508 1.04 8.154 8.154 0 0 0 5.586-1.756 5.81 5.81 0 0 0 1.99-4.566 5.534 5.534 0 0 0-0.723-2.866 5.429 5.429 0 0 0-2.178-2.013 40.974 40.974 0 0 0-6.295-2.213 22.2 22.2 0 0 1-6.13-2.573 8.945 8.945 0 0 1-2.838-3.279 9.749 9.749 0 0 1-1.014-4.5 9.876 9.876 0 0 1 2.912-7.37 10.724 10.724 0 0 1 7.855-2.864 12.574 12.574 0 0 1 5.941 1.344 9.527 9.527 0 0 1 3.951 3.85 12.649 12.649 0 0 1 1.507 5.9l-3.875 0.355a7.993 7.993 0 0 0-2.167-5.37 7.336 7.336 0 0 0-5.228-1.748 7.832 7.832 0 0 0-5.22 1.533 4.965 4.965 0 0 0-1.8 3.963 4.578 4.578 0 0 0 1.319 3.5q1.32 1.238 5.925 2.514a38.618 38.618 0 0 1 6.333 2.163 10.256 10.256 0 0 1 4.208 3.738 10.4 10.4 0 0 1 1.421 5.531 11.535 11.535 0 0 1-1.494 5.805 10.032 10.032 0 0 1-4.068 3.987 13.052 13.052 0 0 1-6.193 1.367 12.092 12.092 0 0 1-9.006-3.4 12.929 12.929 0 0 1-3.486-9.195z"/>
<path transform="translate(-866.55 -371.96)" d="m1334.3 391.66q0-9.5 4.179-14.6a12.941 12.941 0 0 1 10.413-5.105 12.682 12.682 0 0 1 7.346 2.281 15.4 15.4 0 0 1 5.259 6.625 25.274 25.274 0 0 1 1.939 10.348q0 8.257-3.753 13.453a13.007 13.007 0 0 1-21.656-0.153 21.829 21.829 0 0 1-3.727-12.849zm4.156 0.062q0 6.872 3.027 10.664a9.091 9.091 0 0 0 14.795-0.039q3-3.833 3-11.258a22.448 22.448 0 0 0-1.546-8.571 10.5 10.5 0 0 0-3.587-4.625 8.715 8.715 0 0 0-5.229-1.738 9.113 9.113 0 0 0-7.511 3.8q-2.952 3.808-2.949 11.767z"/>
<path transform="translate(-845.32 -371.96)" d="m1370.5 396.73 4.051 1.24q-1.338 6.26-4.7 9.336a11.656 11.656 0 0 1-8.173 3.079 12.465 12.465 0 0 1-7.231-2.065 14.632 14.632 0 0 1-4.914-6.63 27.779 27.779 0 0 1-1.913-10.773 25.192 25.192 0 0 1 1.915-10.381 14.648 14.648 0 0 1 5.186-6.413 12.9 12.9 0 0 1 7.3-2.169 11.2 11.2 0 0 1 7.583 2.742 14.827 14.827 0 0 1 4.439 8.049l-3.951 1.141q-2.032-7.728-8.142-7.728a8.949 8.949 0 0 0-5.277 1.562 10.479 10.479 0 0 0-3.564 4.853 22.4 22.4 0 0 0-1.334 8.343q0 7.631 2.685 11.447a8.339 8.339 0 0 0 7.146 3.814 7.844 7.844 0 0 0 5.688-2.343q2.396-2.341 3.206-7.104z"/>
<path transform="translate(-824.25 -371.55)" d="m1360.9 409.35v-37.137h4.03v37.137z"/>
<path transform="translate(-816.45 -371.55)" d="m1365.8 409.35v-37.137h22.013v4.382h-17.986v11.349h16.847v4.384h-16.847v12.641h18.7v4.381z"/>
<path transform="translate(-799.47 -371.55)" d="m1386.4 409.35v-32.755h-10.03v-4.382h24.143v4.382h-10.082v32.755z"/>
<path transform="translate(-783.12 -371.55)" d="m1398.4 409.35v-15.73l-11.731-21.407h4.924l5.979 11.209c1.18 2.216 2.224 4.312 3.115 6.288q1.346-2.915 3.328-6.565l5.914-10.932h4.657l-12.162 21.407v15.73z"/>
</g>
</g>
</g>
</svg>